<svg xmlns="http://www.w3.org/2000/svg" width="980" height="720" viewBox="0 0 980 720">
<rect width="100%" height="100%" fill="#fbfaf7"/>
<text x="490.0" y="32" text-anchor="middle" font-family="Arial" font-size="21" font-weight="700" fill="#222">Model-split baseline-normalized ratios</text>
<text x="490.0" y="55" text-anchor="middle" font-family="Arial" font-size="13" fill="#555">Pearson r=0.7059, Spearman rho=0.169, n=12</text>
<rect x="105" y="70" width="840" height="555" fill="#ffffff" stroke="#d6d3cc" stroke-width="1"/>
<line x1="105.00" x2="105.00" y1="70" y2="625" stroke="#eee9df" stroke-width="1"/>
<text x="105.00" y="649" text-anchor="middle" font-family="Arial" font-size="12" fill="#555">0.257</text>
<line x1="315.00" x2="315.00" y1="70" y2="625" stroke="#eee9df" stroke-width="1"/>
<text x="315.00" y="649" text-anchor="middle" font-family="Arial" font-size="12" fill="#555">0.371</text>
<line x1="525.00" x2="525.00" y1="70" y2="625" stroke="#eee9df" stroke-width="1"/>
<text x="525.00" y="649" text-anchor="middle" font-family="Arial" font-size="12" fill="#555">0.536</text>
<line x1="735.00" x2="735.00" y1="70" y2="625" stroke="#eee9df" stroke-width="1"/>
<text x="735.00" y="649" text-anchor="middle" font-family="Arial" font-size="12" fill="#555">0.773</text>
<line x1="945.00" x2="945.00" y1="70" y2="625" stroke="#eee9df" stroke-width="1"/>
<text x="945.00" y="649" text-anchor="middle" font-family="Arial" font-size="12" fill="#555">1.12</text>
<line x1="105" x2="945" y1="625.00" y2="625.00" stroke="#eee9df" stroke-width="1"/>
<text x="91" y="629.00" text-anchor="end" font-family="Arial" font-size="12" fill="#555">0.0451</text>
<line x1="105" x2="945" y1="486.25" y2="486.25" stroke="#eee9df" stroke-width="1"/>
<text x="91" y="490.25" text-anchor="end" font-family="Arial" font-size="12" fill="#555">0.104</text>
<line x1="105" x2="945" y1="347.50" y2="347.50" stroke="#eee9df" stroke-width="1"/>
<text x="91" y="351.50" text-anchor="end" font-family="Arial" font-size="12" fill="#555">0.238</text>
<line x1="105" x2="945" y1="208.75" y2="208.75" stroke="#eee9df" stroke-width="1"/>
<text x="91" y="212.75" text-anchor="end" font-family="Arial" font-size="12" fill="#555">0.547</text>
<line x1="105" x2="945" y1="70.00" y2="70.00" stroke="#eee9df" stroke-width="1"/>
<text x="91" y="74.00" text-anchor="end" font-family="Arial" font-size="12" fill="#555">1.26</text>
<text x="525.0" y="692" text-anchor="middle" font-family="Arial" font-size="15" fill="#222">mean spectral-norm ratio to baseline</text>
<text x="24" y="347.5" text-anchor="middle" font-family="Arial" font-size="15" fill="#222" transform="rotate(-90 24 347.5)">final attack MSE ratio to baseline</text>
<circle cx="882.06" cy="108.28" r="6" fill="#4c4c4c" fill-opacity="0.82" stroke="#222" stroke-width="0.7"/>
<text x="890.06" y="100.28" font-family="Arial" font-size="10" fill="#333">baseline:gen</text>
<circle cx="882.06" cy="108.28" r="6" fill="#4c4c4c" fill-opacity="0.82" stroke="#222" stroke-width="0.7"/>
<text x="890.06" y="100.28" font-family="Arial" font-size="10" fill="#333">baseline:tes</text>
<circle cx="882.06" cy="108.28" r="6" fill="#4c4c4c" fill-opacity="0.82" stroke="#222" stroke-width="0.7"/>
<text x="890.06" y="100.28" font-family="Arial" font-size="10" fill="#333">baseline:tra</text>
<polygon points="479.23,454.34 485.23,460.34 479.23,466.34 473.23,460.34" fill="#2563eb" fill-opacity="0.82" stroke="#222" stroke-width="0.7"/>
<text x="487.23" y="452.34" font-family="Arial" font-size="10" fill="#333">loss1e8000:gen</text>
<polygon points="181.95,377.22 187.95,383.22 181.95,389.22 175.95,383.22" fill="#2563eb" fill-opacity="0.82" stroke="#222" stroke-width="0.7"/>
<text x="189.95" y="375.22" font-family="Arial" font-size="10" fill="#333">loss1e8000:tes</text>
<polygon points="162.93,381.58 168.93,387.58 162.93,393.58 156.93,387.58" fill="#2563eb" fill-opacity="0.82" stroke="#222" stroke-width="0.7"/>
<text x="170.93" y="379.58" font-family="Arial" font-size="10" fill="#333">loss1e8000:tra</text>
<circle cx="569.07" cy="418.47" r="6" fill="#0891b2" fill-opacity="0.82" stroke="#222" stroke-width="0.7"/>
<text x="577.07" y="410.47" font-family="Arial" font-size="10" fill="#333">loss2e2000:gen</text>
<circle cx="226.45" cy="363.25" r="6" fill="#0891b2" fill-opacity="0.82" stroke="#222" stroke-width="0.7"/>
<text x="234.45" y="355.25" font-family="Arial" font-size="10" fill="#333">loss2e2000:tes</text>
<circle cx="195.49" cy="356.33" r="6" fill="#0891b2" fill-opacity="0.82" stroke="#222" stroke-width="0.7"/>
<text x="203.49" y="348.33" font-family="Arial" font-size="10" fill="#333">loss2e2000:tra</text>
<circle cx="374.26" cy="586.72" r="6" fill="#d97706" fill-opacity="0.82" stroke="#222" stroke-width="0.7"/>
<text x="382.26" y="578.72" font-family="Arial" font-size="10" fill="#333">loss3e1500:gen</text>
<circle cx="652.97" cy="465.60" r="6" fill="#d97706" fill-opacity="0.82" stroke="#222" stroke-width="0.7"/>
<text x="660.97" y="457.60" font-family="Arial" font-size="10" fill="#333">loss3e1500:tes</text>
<circle cx="887.07" cy="453.88" r="6" fill="#d97706" fill-opacity="0.82" stroke="#222" stroke-width="0.7"/>
<text x="895.07" y="445.88" font-family="Arial" font-size="10" fill="#333">loss3e1500:tra</text>
<circle cx="117" cy="88" r="5" fill="#4c4c4c" fill-opacity="0.82" stroke="#222" stroke-width="0.7"/>
<text x="129" y="92" font-family="Arial" font-size="12" fill="#333">baseline</text>
<circle cx="117" cy="108" r="5" fill="#2563eb" fill-opacity="0.82" stroke="#222" stroke-width="0.7"/>
<text x="129" y="112" font-family="Arial" font-size="12" fill="#333">loss1_epoch8000</text>
<circle cx="117" cy="128" r="5" fill="#0891b2" fill-opacity="0.82" stroke="#222" stroke-width="0.7"/>
<text x="129" y="132" font-family="Arial" font-size="12" fill="#333">loss2_epoch2000</text>
<circle cx="117" cy="148" r="5" fill="#d97706" fill-opacity="0.82" stroke="#222" stroke-width="0.7"/>
<text x="129" y="152" font-family="Arial" font-size="12" fill="#333">loss3_epoch1500</text>
<polygon points="337,83 343,88 337,93 331,88" fill="#2563eb" fill-opacity="0.82" stroke="#222" stroke-width="0.7"/>
<text x="351" y="92" font-family="Arial" font-size="12" fill="#333">loss1 SVD epoch5000 proxy</text>
</svg>
